<svg width="45" height="50" viewBox="0 0 45 50" fill="none" xmlns="http://www.w3.org/2000/svg">
<path fill-rule="evenodd" clip-rule="evenodd" d="M0.0625 7.76672C0.0625 3.47728 3.15949 0 6.97982 0H37.416C41.2363 0 44.3333 3.47728 44.3333 7.76672V41.9403C44.3333 46.2297 41.2363 49.707 37.416 49.707H6.97982C3.15949 49.707 0.0625 46.2297 0.0625 41.9403V7.76672ZM22.1979 12.4268C28.2852 12.4268 33.2656 18.0188 33.2656 24.8535C33.2656 31.0669 29.2536 36.3483 23.7197 37.2803V28.4262H26.3483L26.9017 24.8535H23.8581V22.5235C23.8581 21.5915 24.2731 20.6595 25.6566 20.6595H27.04V17.5528C27.04 17.5528 25.7949 17.2421 24.5498 17.2421C22.0596 17.2421 20.3994 18.9508 20.3994 22.0575V24.8535H17.6325V28.4262H20.3994V37.1249C15.1423 36.1929 11.1302 31.0669 11.1302 24.8535C11.1302 18.0188 16.1107 12.4268 22.1979 12.4268Z" fill="black"/>
</svg>
