<svg width="45" height="50" viewBox="0 0 45 50" fill="none" xmlns="http://www.w3.org/2000/svg">
<path fill-rule="evenodd" clip-rule="evenodd" d="M0.0625 7.76672C0.0625 3.47728 3.15949 0 6.97982 0H37.416C41.2363 0 44.3333 3.47728 44.3333 7.76672V41.9403C44.3333 46.2297 41.2363 49.707 37.416 49.707H6.97982C3.15949 49.707 0.0625 46.2297 0.0625 41.9403V7.76672ZM11.4069 20.6595V37.2803H16.1107V20.6595H11.4069ZM11.1302 15.3781C11.1302 17.0868 12.237 18.3295 13.7588 18.3295C15.2806 18.3295 16.3874 17.0868 16.3874 15.3781C16.3874 13.6694 15.2806 12.4268 13.7588 12.4268C12.3753 12.4268 11.1302 13.6694 11.1302 15.3781ZM28.5619 37.2803H32.9889V27.0282C32.9889 21.9022 30.222 20.1935 27.5934 20.1935C25.2415 20.1935 23.5814 21.9022 23.1663 22.9895V20.6595H18.7393V37.2803H23.443V28.4262C23.443 26.0962 24.8265 24.8535 26.21 24.8535C27.5934 24.8535 28.5619 25.6302 28.5619 28.2709V37.2803Z" fill="black"/>
</svg>
